<?xml version="1.0" encoding="UTF-8" standalone="no"?>
<!DOCTYPE svg PUBLIC "-//W3C//DTD SVG 1.1//EN" "http://www.w3.org/Graphics/SVG/1.1/DTD/svg11.dtd">
<svg version="1.1" xmlns="http://www.w3.org/2000/svg" xmlns:xlink="http://www.w3.org/1999/xlink" preserveAspectRatio="xMidYMid meet" viewBox="0 0 640 640" width="640" height="640"><defs><path d="M382.73 312.73C382.73 330.79 368.06 345.45 350 345.45C331.94 345.45 317.27 330.79 317.27 312.73C317.27 294.66 331.94 280 350 280C368.06 280 382.73 294.66 382.73 312.73Z" id="a1XcnkOyZ9"></path><path d="M350 275L350 351.41L311.79 313.21L350 275Z" id="aUfGxUZ6C"></path><path d="M350 275L350 351.41L388.21 313.21L350 275Z" id="csczFkhyR"></path><path d="M360 313.18C360 318.7 355.52 323.18 350 323.18C344.48 323.18 340 318.7 340 313.18C340 307.66 344.48 303.18 350 303.18C355.52 303.18 360 307.66 360 313.18Z" id="bOVLrqORt"></path></defs><g><g><g><use xlink:href="#a1XcnkOyZ9" opacity="1" fill="#547e93" fill-opacity="1"></use></g><g><use xlink:href="#aUfGxUZ6C" opacity="1" fill="#073a55" fill-opacity="1"></use></g><g><use xlink:href="#csczFkhyR" opacity="1" fill="#012035" fill-opacity="1"></use></g><g><use xlink:href="#bOVLrqORt" opacity="1" fill="#ffffff" fill-opacity="1"></use></g></g></g></svg>