<?xml version="1.0" encoding="UTF-8" standalone="no"?>
<!DOCTYPE svg PUBLIC "-//W3C//DTD SVG 1.1//EN" "http://www.w3.org/Graphics/SVG/1.1/DTD/svg11.dtd">
<svg version="1.1" xmlns="http://www.w3.org/2000/svg" xmlns:xlink="http://www.w3.org/1999/xlink" preserveAspectRatio="xMidYMid meet" viewBox="0 0 77 77" width="77" height="77"><defs><path d="M382.73 312.73C382.73 330.79 368.06 345.45 350 345.45C331.94 345.45 317.27 330.79 317.27 312.73C317.27 294.66 331.94 280 350 280C368.06 280 382.73 294.66 382.73 312.73Z" id="a1XcnkOyZ9"></path><path d="M350 275L350 351.41L311.79 313.21L350 275Z" id="aUfGxUZ6C"></path><path d="M350 275L350 351.41L388.21 313.21L350 275Z" id="c4LqWKXfml"></path><path d="M360 313.18C360 318.7 355.52 323.18 350 323.18C344.48 323.18 340 318.7 340 313.18C340 307.66 344.48 303.18 350 303.18C355.52 303.18 360 307.66 360 313.18Z" id="bOVLrqORt"></path><path d="M71.52 38.31C71.52 56.38 56.86 71.04 38.79 71.04C20.73 71.04 6.07 56.38 6.07 38.31C6.07 20.25 20.73 5.59 38.79 5.59C56.86 5.59 71.52 20.25 71.52 38.31Z" id="aDlJvwPlI"></path><path d="M38.79 0.59L38.79 77L0.59 38.79L38.79 0.59Z" id="cMqqlej2g"></path><path d="M38.79 0.59L38.79 77L77 38.79L38.79 0.59Z" id="b1atUjZ3Oj"></path><path d="M48.79 38.77C48.79 44.29 44.31 48.77 38.79 48.77C33.27 48.77 28.79 44.29 28.79 38.77C28.79 33.25 33.27 28.77 38.79 28.77C44.31 28.77 48.79 33.25 48.79 38.77Z" id="bBWX8mepF"></path></defs><g><g><g><use xlink:href="#a1XcnkOyZ9" opacity="1" fill="#547e93" fill-opacity="1"></use></g><g><use xlink:href="#aUfGxUZ6C" opacity="1" fill="#073a55" fill-opacity="1"></use></g><g><use xlink:href="#c4LqWKXfml" opacity="1" fill="#012035" fill-opacity="1"></use></g><g><use xlink:href="#bOVLrqORt" opacity="1" fill="#ffffff" fill-opacity="1"></use></g><g><use xlink:href="#aDlJvwPlI" opacity="1" fill="#547e93" fill-opacity="1"></use></g><g><use xlink:href="#cMqqlej2g" opacity="1" fill="#073a55" fill-opacity="1"></use></g><g><use xlink:href="#b1atUjZ3Oj" opacity="1" fill="#012035" fill-opacity="1"></use></g><g><use xlink:href="#bBWX8mepF" opacity="1" fill="#ffffff" fill-opacity="1"></use></g></g></g></svg>